<svg xmlns="http://www.w3.org/2000/svg" xmlns:xlink="http://www.w3.org/1999/xlink" version="1.1" width="1024" height="768" viewBox="0 0 1024 768" xml:space="preserve">
<desc>Created with Fabric.js 6.5.1</desc>
<defs>
</defs>

<g transform="matrix(1 0 0 1 512 384)" id="glyphGroup_textPair_1788101579792_0.6766872091765782">
<g style="">
		<g transform="matrix(1 0 0 1 -134.8192 0)">
<g style="">
		<g transform="matrix(1 0 0 1 0 0)">
<polygon style="stroke: none; stroke-width: 1; stroke-dasharray: none; stroke-linecap: butt; stroke-dashoffset: 0; stroke-linejoin: miter; stroke-miterlimit: 4; fill: rgb(0,0,0); fill-rule: nonzero; opacity: 1;" points="20.5208,-12.0335 20.5208,-25.3058 -5.9206,-25.3056 -5.9206,-25.3053 -20.5208,-12.0334 -20.5208,12.0331 -5.9207,25.1304 -5.9207,25.3058 20.5208,25.3056 20.5208,12.0334 -5.9203,12.0335 -5.9203,-12.0334 "/>
</g>
		<g transform="matrix(1 0 0 1 7.3 0)">
<linearGradient id="SVGID_SVGID_1788101677581_0.6001518969853106_223" gradientUnits="userSpaceOnUse" gradientTransform="matrix(1 0 0 1 0 0)" x1="94.07928" y1="99.39895" x2="120.52081" y2="99.39895">
<stop offset="0%" style="stop-color:#474747;stop-opacity: 0.4"/>
<stop offset="27.595%" style="stop-color:#474747;stop-opacity: 0.28962"/>
<stop offset="67.484%" style="stop-color:#474747;stop-opacity: 0.13006"/>
<stop offset="100%" style="stop-color:#474747;stop-opacity: 0"/>
</linearGradient>
<path style="stroke: none; stroke-width: 1; stroke-dasharray: none; stroke-linecap: butt; stroke-dashoffset: 0; stroke-linejoin: miter; stroke-miterlimit: 4; fill: url(#SVGID_SVGID_1788101677581_0.6001518969853106_223); fill-rule: nonzero; opacity: 1;" transform=" translate(-107.3, -99.399)" d="M 94.0793 87.3656 L 94.0793 74.0933 L 120.5208 74.0931 L 120.5208 87.3654 L 94.0793 87.3656 Z M 120.5207 124.7046 L 120.5208 111.4323 L 94.0793 111.4325 L 94.0793 124.7048 L 120.5207 124.7046 Z" stroke-linecap="round"/>
</g>
		<g transform="matrix(1 0 0 1 -13.2206 -0.0874)">
<linearGradient id="SVGID_SVGID_1788101677581_0.9230409443027792_224" gradientUnits="userSpaceOnUse" gradientTransform="matrix(1 0 0 1 -86.7794 -99.3115)" x1="86.77944" y1="79.32394" x2="86.77944" y2="120.0817">
<stop offset="22.346%" style="stop-color:#474747;stop-opacity: 0"/>
<stop offset="47.596%" style="stop-color:#474747;stop-opacity: 0.09755"/>
<stop offset="78.586%" style="stop-color:#474747;stop-opacity: 0.21727"/>
<stop offset="100%" style="stop-color:#474747;stop-opacity: 0.3"/>
</linearGradient>
<polygon style="stroke: none; stroke-width: 1; stroke-dasharray: none; stroke-linecap: butt; stroke-dashoffset: 0; stroke-linejoin: miter; stroke-miterlimit: 4; fill: url(#SVGID_SVGID_1788101677581_0.9230409443027792_224); fill-rule: nonzero; opacity: 1;" points="-7.3002,12.1205 7.3003,25.2182 7.3003,-25.2182 -7.3002,-11.9459 "/>
</g>
		<g transform="matrix(1 0 0 1 -13.2206 -0.0874)">
<linearGradient id="SVGID_SVGID_1788101677581_0.5963282673027381_225" gradientUnits="userSpaceOnUse" gradientTransform="matrix(1 0 0 1 -86.7794 -99.3115)" x1="86.77944" y1="79.32394" x2="86.77944" y2="120.0817">
<stop offset="0%" style="stop-color:#474747;stop-opacity: 0.5"/>
<stop offset="1.202%" style="stop-color:#474747;stop-opacity: 0.49309"/>
<stop offset="86.929%" style="stop-color:#474747;stop-opacity: 0"/>
</linearGradient>
<polygon style="stroke: none; stroke-width: 1; stroke-dasharray: none; stroke-linecap: butt; stroke-dashoffset: 0; stroke-linejoin: miter; stroke-miterlimit: 4; fill: url(#SVGID_SVGID_1788101677581_0.5963282673027381_225); fill-rule: nonzero; opacity: 1;" points="-7.3002,12.1205 7.3003,25.2182 7.3003,-25.2182 -7.3002,-11.9459 "/>
</g>
</g>
</g>
		<g transform="matrix(1 0 0 1 -83.448 -0.1058)">
<g style="">
		<g transform="matrix(1 0 0 1 0 0)">
<path style="stroke: none; stroke-width: 1; stroke-dasharray: none; stroke-linecap: butt; stroke-dashoffset: 0; stroke-linejoin: miter; stroke-miterlimit: 4; fill: rgb(0,0,0); fill-rule: nonzero; opacity: 1;" transform=" translate(-100, -95.8156)" d="M 125.452 107.7676 L 125.452 83.8636 L 110.836 70.6156 L 89.092 70.6156 L 89.092 70.6876 L 74.548 83.8636 L 74.548 107.7676 L 89.092 121.0156 L 110.836 121.0156 Z M 89.164 83.8636 L 110.836 83.8636 L 110.836 107.7676 L 89.164 107.7676 Z" stroke-linecap="round"/>
</g>
</g>
</g>
		<g transform="matrix(1 0 0 1 -27.1411 -0.0874)">
<g style="">
		<g transform="matrix(1 0 0 1 0 0)">
<path style="stroke: none; stroke-width: 1; stroke-dasharray: none; stroke-linecap: butt; stroke-dashoffset: 0; stroke-linejoin: miter; stroke-miterlimit: 4; fill: rgb(0,0,0); fill-rule: nonzero; opacity: 1;" transform=" translate(-100, -99.3113)" d="M 99.2851 74.0936 L 99.2851 74.0954 L 99.2849 74.093 L 90.0103 74.0931 L 90.0096 74.102 L 90.0096 74.0933 L 75.4091 87.3656 L 75.4091 124.5297 L 90.0096 124.5297 L 90.0096 124.5151 L 99.2851 124.5149 L 99.2851 124.5156 C 113.2387 124.5156 124.5909 113.3529 124.5909 99.3993 C 124.5909 85.4457 113.2387 74.0936 99.2851 74.0936 Z M 99.2851 111.2432 L 99.285 111.2426 L 90.0096 111.2428 L 90.0096 87.3654 L 99.2851 87.3652 L 99.2851 87.366 C 105.9203 87.366 111.3185 92.7641 111.3185 99.3994 C 111.3185 106.0346 105.9203 111.2432 99.2851 111.2432 Z" stroke-linecap="round"/>
</g>
		<g transform="matrix(1 0 0 1 7.3002 -0.007)">
<linearGradient id="SVGID_SVGID_1788101677583_0.33777196268393594_226" gradientUnits="userSpaceOnUse" gradientTransform="matrix(1 0 0 1 0 0)" x1="90.00952" y1="99.30429" x2="124.59088" y2="99.30429">
<stop offset="0%" style="stop-color:#474747;stop-opacity: 0.4"/>
<stop offset="27.595%" style="stop-color:#474747;stop-opacity: 0.28962"/>
<stop offset="67.484%" style="stop-color:#474747;stop-opacity: 0.13006"/>
<stop offset="100%" style="stop-color:#474747;stop-opacity: 0"/>
</linearGradient>
<path style="stroke: none; stroke-width: 1; stroke-dasharray: none; stroke-linecap: butt; stroke-dashoffset: 0; stroke-linejoin: miter; stroke-miterlimit: 4; fill: url(#SVGID_SVGID_1788101677583_0.33777196268393594_226); fill-rule: nonzero; opacity: 1;" transform=" translate(-107.3002, -99.3043)" d="M 99.2851 74.0936 L 99.2851 74.0954 L 99.2849 74.093 L 90.0103 74.0931 L 90.0104 87.3654 L 99.2851 87.3652 L 99.2851 87.366 C 105.9203 87.366 111.3185 92.7641 111.3185 99.3994 C 111.3185 106.0346 105.9204 111.2432 99.2851 111.2432 L 99.285 111.2426 L 90.0095 111.2428 L 90.0096 124.5151 L 99.2851 124.5149 L 99.2851 124.5156 C 113.2387 124.5156 124.5909 113.3529 124.5909 99.3994 C 124.5909 85.4457 113.2387 74.0936 99.2851 74.0936 Z" stroke-linecap="round"/>
</g>
		<g transform="matrix(1 0 0 1 -17.2906 0.0002)">
<linearGradient id="SVGID_SVGID_1788101677583_0.5691499998547019_227" gradientUnits="userSpaceOnUse" gradientTransform="matrix(1 0 0 1 -82.7093 -99.3115)" x1="82.70934" y1="124.52972" x2="82.70934" y2="74.09335">
<stop offset="0%" style="stop-color:#474747;stop-opacity: 0.3"/>
<stop offset="21.414%" style="stop-color:#474747;stop-opacity: 0.21727"/>
<stop offset="52.403999999999996%" style="stop-color:#474747;stop-opacity: 0.09755"/>
<stop offset="77.654%" style="stop-color:#474747;stop-opacity: 0"/>
</linearGradient>
<polygon style="stroke: none; stroke-width: 1; stroke-dasharray: none; stroke-linecap: butt; stroke-dashoffset: 0; stroke-linejoin: miter; stroke-miterlimit: 4; fill: url(#SVGID_SVGID_1788101677583_0.5691499998547019_227); fill-rule: nonzero; opacity: 1;" points="-7.3002,25.2182 7.3002,25.2182 7.3002,-25.2182 -7.3002,-11.9459 "/>
</g>
		<g transform="matrix(1 0 0 1 -17.2906 0.0002)">
<linearGradient id="SVGID_SVGID_1788101677583_0.29257648185701335_228" gradientUnits="userSpaceOnUse" gradientTransform="matrix(1 0 0 1 -82.7093 -99.3115)" x1="82.70934" y1="124.52972" x2="82.70934" y2="74.09335">
<stop offset="18.736%" style="stop-color:#474747;stop-opacity: 0"/>
<stop offset="98.87599999999999%" style="stop-color:#474747;stop-opacity: 0.49309"/>
<stop offset="100%" style="stop-color:#474747;stop-opacity: 0.5"/>
</linearGradient>
<polygon style="stroke: none; stroke-width: 1; stroke-dasharray: none; stroke-linecap: butt; stroke-dashoffset: 0; stroke-linejoin: miter; stroke-miterlimit: 4; fill: url(#SVGID_SVGID_1788101677583_0.29257648185701335_228); fill-rule: nonzero; opacity: 1;" points="-7.3002,25.2182 7.3002,25.2182 7.3002,-25.2182 -7.3002,-11.9459 "/>
</g>
</g>
</g>
		<g transform="matrix(1 0 0 1 22.716 -0.1058)">
<g style="">
		<g transform="matrix(1 0 0 1 0 0)">
<path style="stroke: none; stroke-width: 1; stroke-dasharray: none; stroke-linecap: butt; stroke-dashoffset: 0; stroke-linejoin: miter; stroke-miterlimit: 4; fill: rgb(0,0,0); fill-rule: nonzero; opacity: 1;" transform=" translate(-99.64, -95.8156)" d="M 93.736 88.5436 L 93.736 83.8636 L 120.16 83.8636 L 120.16 70.6156 L 93.736 70.6156 L 79.12 83.8636 L 79.12 107.9116 L 93.736 121.0156 L 120.16 121.0156 L 120.16 107.7676 L 93.736 107.7676 L 93.736 101.7916 L 117.712 101.7916 L 117.712 88.5436 Z" stroke-linecap="round"/>
</g>
</g>
</g>
		<g transform="matrix(1 0 0 1 73.872 -0.1058)">
<g style="">
		<g transform="matrix(1 0 0 1 0 0)">
<path style="stroke: none; stroke-width: 1; stroke-dasharray: none; stroke-linecap: butt; stroke-dashoffset: 0; stroke-linejoin: miter; stroke-miterlimit: 4; fill: rgb(0,0,0); fill-rule: nonzero; opacity: 1;" transform=" translate(-100, -95.8156)" d="M 108.172 121.0156 L 126.964 70.6156 L 111.7 70.6156 L 100.036 101.8636 L 88.3 70.6156 L 73.036 70.6156 L 92.044 121.0156 Z" stroke-linecap="round"/>
</g>
</g>
</g>
		<g transform="matrix(1 0 0 1 128.376 -0.1058)">
<g style="">
		<g transform="matrix(1 0 0 1 0 0)">
<path style="stroke: none; stroke-width: 1; stroke-dasharray: none; stroke-linecap: butt; stroke-dashoffset: 0; stroke-linejoin: miter; stroke-miterlimit: 4; fill: rgb(0,0,0); fill-rule: nonzero; opacity: 1;" transform=" translate(-100, -95.8156)" d="M 99.964 89.7676 L 111.7 121.0156 L 126.964 121.0156 L 107.956 70.6156 L 91.828 70.6156 L 73.036 121.0156 L 88.3 121.0156 Z" stroke-linecap="round"/>
</g>
</g>
</g>
</g>
</g>
<g transform="matrix(1 0 0 1 512 384)" style="" id="logo-title">
		<text xml:space="preserve" font-family="Brandmark-Corporate-Origami, sans-serif" font-size="72" font-style="normal" font-weight="800" style="stroke: none; stroke-width: 1; stroke-dasharray: none; stroke-linecap: butt; stroke-dashoffset: 0; stroke-linejoin: miter; stroke-miterlimit: 4; fill: rgb(255,255,255); fill-opacity: 0; fill-rule: nonzero; opacity: 1; white-space: pre;"><tspan x="-156.96" y="22.6181">CoDeva</tspan></text>
</g>
</svg>